<svg xmlns="http://www.w3.org/2000/svg" width="93.257" height="25.752" viewBox="0 0 93.257 25.752">
  <g id="CIMB_Logo" data-name="CIMB Logo" transform="translate(-593 -36.405)">
    <path id="Path_760" data-name="Path 760" d="M437.726,486.115a5.578,5.578,0,1,1,0-8.741l.044.041,2.377-2.372-.056-.049a8.889,8.889,0,0,0-5.83-2.182,8.934,8.934,0,1,0,5.83,15.695l.056-.057-2.377-2.374-.044.038m5.64,4.065h3.418V473.306h-3.418Zm16.877-6.09c-.126-.224-5.959-10.813-5.959-10.813h-3.33V490.15h3.4V480.072l5.884,10.214,5.856-10.214V490.15h3.4V473.278h-3.335s-5.8,10.589-5.925,10.813m23.306-2.557a3.986,3.986,0,0,0,1.981-3.451c0-2.945-2.012-4.772-5.245-4.772h-6.791v16.869h7.071c3.2,0,5.2-1.868,5.2-4.887a3.963,3.963,0,0,0-2.215-3.759m-6.645-5.17h3.13c1.3,0,2.086.694,2.086,1.858s-.784,1.853-2.086,1.853H476.9Zm3.335,10.764H476.9v-3.972h3.335a1.99,1.99,0,1,1,0,3.972" transform="translate(200.493 -432.466)" fill="#fff"/>
    <rect id="Rectangle_120" data-name="Rectangle 120" width="25.747" height="25.752" transform="translate(593 36.405)" fill="#fff"/>
    <path id="Path_765" data-name="Path 765" d="M427.346,473.173H413.661l6.056,8.007h13.691Z" transform="translate(182.337 -431.901)" fill="#e50019"/>
    <path id="Path_766" data-name="Path 766" d="M433.406,476.289H419.716l-6.054,8.014h13.683Z" transform="translate(182.339 -427.01)" fill="#640008"/>
  </g>
</svg>
